<?xml version="1.0" encoding="utf-8"?>
<!-- Generator: Adobe Illustrator 19.2.1, SVG Export Plug-In . SVG Version: 6.00 Build 0)  -->
<svg version="1.1" id="Layer_1" xmlns="http://www.w3.org/2000/svg" xmlns:xlink="http://www.w3.org/1999/xlink" x="0px" y="0px"
	 viewBox="0 0 350 350" style="enable-background:new 0 0 350 350;" xml:space="preserve">
<style type="text/css">
	.st0{opacity:0.5;}
	.st1{fill:none;stroke:#8CC63F;stroke-width:4;stroke-miterlimit:10;}
	.st2{fill:#8CC63F;}
</style>
<g class="st0">
	<circle class="st1" cx="175" cy="175" r="172.5"/>
	<path id="XMLID_303_" class="st2" d="M119.5,236.1c5.4,5.3,8.5,12.4,8.6,19.9c0,1.8-1.4,3.3-3.2,3.4c0,0-0.1,0-0.1,0
		c-1.8,0-3.2-1.4-3.3-3.2c-0.3-12-10.2-21.7-22.2-21.7c-0.2,0-0.5,0-0.7,0c-1.8,0.1-3.3-1.4-3.4-3.2c-0.1-1.8,1.4-3.3,3.2-3.4
		c0.3,0,0.6,0,0.9,0C106.9,227.9,114.1,230.8,119.5,236.1z M96.1,119.8h81.1c1.8,0,3.3-1.5,3.3-3.3s-1.5-3.3-3.3-3.3H96.1
		c-1.8,0-3.3,1.5-3.3,3.3S94.3,119.8,96.1,119.8z M171.6,143.1c1.8,0,3.3-1.5,3.3-3.3s-1.5-3.3-3.3-3.3H96.1c-1.8,0-3.3,1.5-3.3,3.3
		s1.5,3.3,3.3,3.3H171.6z M228.1,123.4c1.8,0,3.3-1.5,3.3-3.3v-0.8c0-1.8-1.5-3.3-3.3-3.3s-3.3,1.5-3.3,3.3v0.8
		C224.8,121.9,226.3,123.4,228.1,123.4z M199.5,131.1c-1.8,0-3.3,1.5-3.3,3.3v0.8c0,1.8,1.5,3.3,3.3,3.3s3.3-1.5,3.3-3.3v-0.8
		C202.8,132.6,201.4,131.1,199.5,131.1z M95.2,163.1c0-1.8,1.5-3.3,3.3-3.3h108.2c2.1-2.1,4.7-3.5,7.6-4.2v-6.5
		c-2.1-0.5-4-1.4-5.7-2.7c-2.6,2-5.7,3-9,3c-8.2,0-14.9-6.7-14.9-14.9c0-5.4,2.9-10.3,7.4-12.9c-0.2-0.9-0.2-1.8-0.2-2.7
		c0-6.8,4.6-12.6,10.9-14.3c0.4-7.8,6.9-14.1,14.8-14.1s14.4,6.2,14.8,14.1c6.3,1.7,10.9,7.5,10.9,14.3c0,0.9-0.1,1.8-0.2,2.7
		c4.5,2.6,7.4,7.5,7.4,12.9c0,8.2-6.7,14.9-14.9,14.9c-3.3,0-6.5-1.1-9-3c-1.7,1.3-3.6,2.2-5.7,2.7v6.5c2.9,0.6,5.5,2.1,7.6,4.2
		h25.6c1.8,0,3.3,1.5,3.3,3.3c0,1.8-1.5,3.3-3.3,3.3h-27c-1,0-1.9-0.5-2.6-1.2c-1.7-2.1-4.2-3.3-6.8-3.3c-2.7,0-5.2,1.2-6.8,3.3
		c-0.6,0.8-1.6,1.2-2.6,1.2H98.5C96.7,166.3,95.2,164.9,95.2,163.1z M214.2,142.2v-9.9c0-1.8,1.5-3.3,3.3-3.3s3.3,1.5,3.3,3.3v9.9
		c1.2-0.5,2.3-1.3,3.2-2.4c0.6-0.8,1.6-1.2,2.6-1.2c1,0,1.9,0.4,2.6,1.2c1.6,2,3.9,3.1,6.5,3.1c4.6,0,8.3-3.7,8.3-8.3
		c0-3.6-2.3-6.8-5.8-7.9c-0.9-0.3-1.6-0.9-2-1.8c-0.4-0.8-0.4-1.8,0-2.7c0.4-1,0.7-2.1,0.7-3.3c0-4.4-3.5-8.1-7.9-8.3
		c-0.9,0-1.8-0.5-2.4-1.2c-0.6-0.7-0.8-1.7-0.7-2.6c0.1-0.5,0.1-0.9,0.1-1.4c0-4.6-3.7-8.3-8.3-8.3s-8.3,3.7-8.3,8.3
		c0,0.5,0,0.9,0.1,1.4c0.2,0.9-0.1,1.9-0.7,2.6c-0.6,0.7-1.5,1.2-2.4,1.2c-4.4,0.2-7.9,3.9-7.9,8.3c0,1.1,0.2,2.2,0.7,3.3
		c0.4,0.9,0.3,1.8,0,2.7c-0.4,0.8-1.1,1.5-2,1.8c-3.5,1.1-5.8,4.3-5.8,7.9c0,4.6,3.7,8.3,8.3,8.3c2.5,0,4.9-1.1,6.5-3.1
		c0.6-0.8,1.6-1.2,2.6-1.2s1.9,0.4,2.6,1.2C211.9,140.9,213,141.7,214.2,142.2z M253.9,206.3h-72.8c-1.8,0-3.3,1.5-3.3,3.3
		s1.5,3.3,3.3,3.3h72.8c1.8,0,3.3-1.5,3.3-3.3S255.7,206.3,253.9,206.3z M253.9,183h-92.4c-1.8,0-3.3,1.5-3.3,3.3s1.5,3.3,3.3,3.3
		h92.4c1.8,0,3.3-1.5,3.3-3.3S255.7,183,253.9,183z M253.9,229.5h-62.6c-1.8,0-3.3,1.5-3.3,3.3c0,1.8,1.5,3.3,3.3,3.3h62.6
		c1.8,0,3.3-1.5,3.3-3.3C257.2,231,255.7,229.5,253.9,229.5z M253.9,252.8h-58.7c-1.8,0-3.3,1.5-3.3,3.3c0,1.8,1.5,3.3,3.3,3.3h58.7
		c1.8,0,3.3-1.5,3.3-3.3C257.2,254.3,255.7,252.8,253.9,252.8z M100.1,205.1c-0.6,0-1.1,0-1.7,0c-1.8,0.1-3.2,1.6-3.2,3.4
		c0.1,1.8,1.6,3.2,3.4,3.2c0.5,0,1,0,1.4,0c24.5,0,45,20,45.5,44.5c0,1.8,1.5,3.2,3.3,3.2c0,0,0.1,0,0.1,0c1.8,0,3.2-1.5,3.2-3.4
		c-0.3-13.7-5.9-26.5-15.6-36C126.7,210.4,113.8,205.1,100.1,205.1z M100.8,183c-0.7,0-1.5,0-2.4,0c-1.8,0.1-3.2,1.6-3.2,3.4
		c0.1,1.8,1.6,3.2,3.4,3.2c0.8,0,1.5,0,2.2,0c36.7,0,67.3,29.9,68.2,66.6c0,1.8,1.5,3.2,3.3,3.2c0,0,0.1,0,0.1,0
		c1.8,0,3.2-1.5,3.2-3.4c-0.4-19.6-8.4-37.9-22.4-51.7C139,190.6,120.4,183,100.8,183z"/>
</g>
</svg>
