<?xml version="1.0" encoding="utf-8"?>
<!-- Generator: Adobe Illustrator 19.2.1, SVG Export Plug-In . SVG Version: 6.00 Build 0)  -->
<svg version="1.1" id="Layer_1" xmlns="http://www.w3.org/2000/svg" xmlns:xlink="http://www.w3.org/1999/xlink" x="0px" y="0px"
	 viewBox="0 0 60 60" style="enable-background:new 0 0 60 60;" xml:space="preserve">
<style type="text/css">
	.st0{fill:none;stroke:#FFFFFF;stroke-width:3;stroke-linecap:round;stroke-linejoin:round;stroke-miterlimit:10;}
	.st1{fill:#FFFFFF;}
</style>
<g>
	<polygon class="st0" points="25.7,7.2 46.2,14.1 53.2,35.2 37.6,52.2 12.4,45.2 8,22.3 	"/>
	<g>
		<path class="st1" d="M19.5,25.5h-3.1c-0.6,0-1-0.5-0.9-1c0.1-0.6,0.6-1,1.2-1h8.5c0.6,0,1,0.5,0.9,1c-0.1,0.6-0.6,1-1.2,1h-3.1
			l-1.4,9.6c-0.1,0.6-0.7,1.1-1.3,1.1c-0.6,0-1.1-0.5-1-1.1L19.5,25.5z"/>
		<path class="st1" d="M27.2,24.6c0.1-0.6,0.7-1.1,1.3-1.1h3.9c3,0,4.6,1.7,4.2,4.2l0,0c-0.4,2.8-2.9,4.3-5.7,4.3h-2.5l-0.4,3
			c-0.1,0.6-0.6,1.1-1.3,1.1c-0.6,0-1.1-0.5-1-1.1L27.2,24.6z M31.2,30c1.7,0,2.9-0.9,3.1-2.3l0,0c0.2-1.5-0.8-2.3-2.4-2.3h-2.6
			L28.6,30H31.2z"/>
		<path class="st1" d="M38.2,24.4c0.1-0.6,0.6-1.1,1.3-1.1c0.6,0,1,0.5,1,1.1L39.1,34h5.8c0.6,0,1,0.5,0.9,1c-0.1,0.6-0.6,1-1.2,1
			h-6.9c-0.6,0-1.1-0.5-1-1.1L38.2,24.4z"/>
	</g>
</g>
</svg>
